# xmcd
#
# Track frame offsets: 
#        150
#        19847
#        40292
#        57822
#        80890
#
# Disc length: 1411 seconds
#
# Revision: 0
# Processed by: cddbd v1.5.2PL0 Copyright (c) Steve Scherf et al.
# Submitted via: ExactAudioCopy v1.0b1
#
DISCID=3b058105
DTITLE=Noelle Hampton - 5 For The Road
DYEAR=2002
DGENRE=Country
TTITLE0=Pray For The Weather
TTITLE1=Bitter Song
TTITLE2=This Could Be Our Home
TTITLE3=Mean Old Town
TTITLE4=Here On The Ground
EXTD=
EXTT0=
EXTT1=
EXTT2=
EXTT3=
EXTT4=
PLAYORDER=
